{"title":"Obsessed 2009 DVDrip English Klam","uid":6103989,"size":1466249263,"categoryP":"video","categoryS":"movies","magnet":"?xt=urn:btih:4f48c3618695c3d0f7f86dff5a033162d49108f2&amp;dn=Obsessed+2009+DVDrip+English+Klam&amp;tr=udp%3A%2F%2Ftracker.openbittorrent.com%3A80&amp;tr=udp%3A%2F%2Fopen.demonii.com%3A1337&amp;tr=udp%3A%2F%2Ftracker.coppersurfer.tk%3A6969&amp;tr=udp%3A%2F%2Fexodus.desync.com%3A6969","seeders":15,"leechers":2,"uploader":"Klambake","files":-1,"time":1295091189,"description":"With: Idris Elba, BeyoncÃƒÂ© Knowles and Ali Larter\n\nDerek Charles is a hard working man, employed as a asset manager in a private company. He is very happy with his beautiful wife, Sharon, and only son, and because of his hard work he just got a huge promotion. But suddenly he gets a temporary worker who is both attractive and smart, and Derek is understandably impressed with her and also finds himself physically drawn to her. However, this new girl is desperate to get close to him - at any cost. \n\nGeneral:\n\nComplete name                    : Obsessed\\Obsessed.avi\nFormat                           : AVI\nFormat/Info                      : Audio Video Interleave\nFile size                        : 1.37 GiB\nDuration                         : 1h 43mn\nOverall bit rate                 : 1 880 Kbps\nWriting application              : VirtualDubMod 1.5.10.2 (build 2540/release)\nWriting library                  : VirtualDubMod build 2540/release\n\nVideo:\n\nFormat                           : MPEG-4 Visual\nFormat profile                   : Advanced Simple@L5\nFormat settings, BVOP            : Yes\nFormat settings, QPel            : No\nFormat settings, GMC             : No warppoints\nFormat settings, Matrix          : Default (MPEG)\nCodec ID                         : XVID\nCodec ID/Hint                    : XviD\nDuration                         : 1h 43mn\nBit rate                         : 1 422 Kbps\nWidth                            : 640 pixels\nHeight                           : 272 pixels\nDisplay aspect ratio             : 2.35:1\nFrame rate                       : 25.000 fps\nColor space                      : YUV\nChroma subsampling               : 4:2:0\nBit depth                        : 8 bits\nScan type                        : Progressive\nBits/(Pixel*Frame)               : 0.327\nStream size                      : 1.03 GiB (76%)\nWriting library                  : XviD 1.2.1 (UTC 2008-12-04)\n\nAudio:\n\nFormat                           : AC-3\nFormat/Info                      : Audio Coding 3\nMode extension                   : CM (complete main)\nCodec ID                         : 2000\nDuration                         : 1h 43mn\nBit rate mode                    : Constant\nBit rate                         : 448 Kbps\nChannel(s)                       : 6 channels\nChannel positions                : Front: L C R, Side: L R, LFE\nSampling rate                    : 48.0 KHz\nBit depth                        : 16 bits\nStream size                      : 333 MiB (24%)\nAlignment                        : Split accross interleaves\nInterleave, duration             : 40 ms (1.00 video frame)\nInterleave, preload duration     : 500 ms\n\n\n","torrent":{"xt":"urn:btih:4f48c3618695c3d0f7f86dff5a033162d49108f2","amp;dn":"Obsessed+2009+DVDrip+English+Klam","amp;tr":["udp%3A%2F%2Ftracker.openbittorrent.com%3A80","udp%3A%2F%2Fopen.demonii.com%3A1337","udp%3A%2F%2Ftracker.coppersurfer.tk%3A6969","udp%3A%2F%2Fexodus.desync.com%3A6969"],"infoHash":"4f48c3618695c3d0f7f86dff5a033162d49108f2","infoHashBuffer":{"type":"Buffer","data":[79,72,195,97,134,149,195,208,247,248,109,255,90,3,49,98,212,145,8,242]},"announce":[],"urlList":[]}}